<svg width="331" height="180" viewBox="0 0 331 180" fill="none" xmlns="http://www.w3.org/2000/svg">
<path d="M34.0761 18.1052C9.9358 52.6697 -4.32848 155.266 108.691 171.725" stroke="#844FCF" strokeWidth="2.19457"/>
<path d="M29.6875 25.2376C30.0533 19.0196 34.6253 5.26697 49.9873 0C49.0729 6.40083 43.7327 20.4095 29.6875 25.2376Z" fill="#844FCF"/>
<path d="M21.4577 9.87561C24.9324 14.0819 30.236 25.2376 23.6523 36.2104C20.3604 32.9186 15.3129 23.043 21.4577 9.87561Z" fill="#844FCF"/>
<path d="M14.0215 29.6144C17.87 33.4816 24.1817 44.0996 18.64 55.6338C15.0581 52.6602 9.11965 43.2933 14.0215 29.6144Z" fill="#844FCF"/>
<path d="M5.7433 51.1609C10.6516 54.3797 19.6484 64.1599 16.3694 77.5305C11.9397 75.1935 3.61287 66.6476 5.7433 51.1609Z" fill="#844FCF"/>
<path d="M2.72461 72.9413C8.18748 75.0882 18.9944 82.8216 18.5192 96.5802C13.7051 95.1985 3.80656 88.5363 2.72461 72.9413Z" fill="#844FCF"/>
<path d="M3.74222 94.0536C9.50681 95.1588 21.552 100.772 23.6162 114.383C18.6301 113.911 7.67478 109.183 3.74222 94.0536Z" fill="#844FCF"/>
<path d="M9.11688 114.586C14.9847 114.44 27.9479 117.364 32.8588 130.225C27.8863 130.824 16.1764 128.534 9.11688 114.586Z" fill="#844FCF"/>
<path d="M19.346 137.086C24.9501 135.34 38.2188 134.607 46.4606 145.634C41.8414 147.57 29.9517 148.57 19.346 137.086Z" fill="#844FCF"/>
<path d="M32.2484 150.489C37.6717 148.244 50.8197 146.313 60.0249 156.55C55.5998 158.896 43.8493 160.968 32.2484 150.489Z" fill="#844FCF"/>
<path d="M51.0688 165.073C55.9177 161.765 68.3919 157.184 79.4978 165.32C75.6465 168.521 64.5689 172.955 51.0688 165.073Z" fill="#844FCF"/>
<path d="M70.4798 176.914C74.4534 172.594 85.5655 165.306 98.2256 170.714C95.1998 174.705 85.4145 181.533 70.4798 176.914Z" fill="#844FCF"/>
<path d="M22.6781 40.4355C28.1336 40.3776 40.0793 37.2345 44.2175 25.1256C39.5787 24.7335 28.7764 27.2465 22.6781 40.4355Z" fill="#844FCF"/>
<path d="M18.06 59.9309C23.4869 59.3691 35.091 55.1357 38.0927 42.6963C33.4375 42.7344 22.9136 46.2348 18.06 59.9309Z" fill="#844FCF"/>
<path d="M16.7105 82.1829C22.2994 80.3893 33.5782 73.3619 33.9827 59.601C29.0902 60.6724 18.7863 66.6888 16.7105 82.1829Z" fill="#844FCF"/>
<path d="M19.8054 101.064C24.9093 98.1655 34.5124 88.9799 32.094 75.4272C27.5241 77.4766 18.6685 85.4731 19.8054 101.064Z" fill="#844FCF"/>
<path d="M25.7057 118.554C30.1892 114.766 37.9385 103.97 33.068 91.094C28.9531 93.9491 21.7198 103.438 25.7057 118.554Z" fill="#844FCF"/>
<path d="M35.7866 133.856C39.3622 129.202 44.639 117.005 37.1421 105.459C33.7284 109.123 28.678 119.934 35.7866 133.856Z" fill="#844FCF"/>
<path d="M50.2705 148.326C52.4363 142.87 54.1755 129.695 43.8059 120.64C41.5249 125.099 39.6244 136.878 50.2705 148.326Z" fill="#844FCF"/>
<path d="M64.0624 158.886C65.7259 153.257 66.2665 139.979 55.1205 131.899C53.2521 136.546 52.4246 148.449 64.0624 158.886Z" fill="#844FCF"/>
<path d="M82.8317 166.78C83.3077 160.93 81.1188 147.822 68.5548 142.195C67.6771 147.126 69.3038 158.946 82.8317 166.78Z" fill="#844FCF"/>
<path d="M102.871 171.133C102.01 165.327 96.9083 153.056 83.396 150.421C83.6582 155.423 87.9204 166.567 102.871 171.133Z" fill="#844FCF"/>
<path d="M296.775 18.1052C320.916 52.6697 335.18 155.266 222.16 171.725" stroke="#844FCF" strokeWidth="2.19457"/>
<path d="M301.164 25.2376C300.798 19.0196 296.226 5.26697 280.864 0C281.779 6.40083 287.119 20.4095 301.164 25.2376Z" fill="#844FCF"/>
<path d="M309.394 9.87561C305.919 14.0819 300.616 25.2376 307.199 36.2104C310.491 32.9186 315.539 23.043 309.394 9.87561Z" fill="#844FCF"/>
<path d="M316.83 29.6144C312.982 33.4816 306.67 44.0996 312.212 55.6338C315.794 52.6602 321.732 43.2933 316.83 29.6144Z" fill="#844FCF"/>
<path d="M325.108 51.1608C320.2 54.3796 311.203 64.1598 314.482 77.5304C318.912 75.1933 327.239 66.6475 325.108 51.1608Z" fill="#844FCF"/>
<path d="M328.127 72.9412C322.664 75.0881 311.857 82.8215 312.332 96.5801C317.146 95.1984 327.045 88.5362 328.127 72.9412Z" fill="#844FCF"/>
<path d="M327.109 94.0536C321.345 95.1588 309.3 100.772 307.235 114.383C312.221 113.911 323.177 109.183 327.109 94.0536Z" fill="#844FCF"/>
<path d="M321.735 114.586C315.867 114.44 302.904 117.364 297.993 130.225C302.965 130.824 314.675 128.534 321.735 114.586Z" fill="#844FCF"/>
<path d="M311.506 137.086C305.901 135.34 292.633 134.607 284.391 145.634C289.01 147.57 300.9 148.57 311.506 137.086Z" fill="#844FCF"/>
<path d="M298.603 150.489C293.18 148.244 280.032 146.313 270.827 156.55C275.252 158.896 287.002 160.968 298.603 150.489Z" fill="#844FCF"/>
<path d="M279.783 165.073C274.934 161.765 262.46 157.184 251.354 165.32C255.205 168.521 266.283 172.955 279.783 165.073Z" fill="#844FCF"/>
<path d="M260.372 176.914C256.398 172.594 245.286 165.306 232.626 170.714C235.652 174.705 245.437 181.533 260.372 176.914Z" fill="#844FCF"/>
<path d="M308.174 40.4354C302.718 40.3775 290.772 37.2344 286.634 25.1255C291.273 24.7334 302.075 27.2464 308.174 40.4354Z" fill="#844FCF"/>
<path d="M312.792 59.9309C307.365 59.3691 295.761 55.1357 292.759 42.6963C297.414 42.7344 307.938 46.2348 312.792 59.9309Z" fill="#844FCF"/>
<path d="M314.141 82.1829C308.552 80.3893 297.273 73.3619 296.869 59.601C301.761 60.6724 312.065 66.6888 314.141 82.1829Z" fill="#844FCF"/>
<path d="M311.046 101.064C305.942 98.1655 296.339 88.9799 298.758 75.4272C303.327 77.4766 312.183 85.4731 311.046 101.064Z" fill="#844FCF"/>
<path d="M305.146 118.554C300.662 114.766 292.913 103.97 297.784 91.094C301.898 93.9491 309.132 103.438 305.146 118.554Z" fill="#844FCF"/>
<path d="M295.065 133.856C291.489 129.202 286.213 117.005 293.709 105.459C297.123 109.123 302.174 119.934 295.065 133.856Z" fill="#844FCF"/>
<path d="M280.581 148.326C278.415 142.87 276.676 129.695 287.046 120.64C289.327 125.099 291.227 136.878 280.581 148.326Z" fill="#844FCF"/>
<path d="M266.789 158.886C265.126 153.257 264.585 139.979 275.731 131.899C277.6 136.546 278.427 148.449 266.789 158.886Z" fill="#844FCF"/>
<path d="M248.02 166.78C247.544 160.93 249.733 147.822 262.297 142.195C263.174 147.126 261.548 158.946 248.02 166.78Z" fill="#844FCF"/>
<path d="M227.98 171.133C228.842 165.327 233.943 153.056 247.456 150.421C247.193 155.423 242.931 166.567 227.98 171.133Z" fill="#844FCF"/>
</svg>
