<?xml version="1.0" standalone="no"?>
<!DOCTYPE svg PUBLIC "-//W3C//DTD SVG 20010904//EN"
 "http://www.w3.org/TR/2001/REC-SVG-20010904/DTD/svg10.dtd">
<svg version="1.0" xmlns="http://www.w3.org/2000/svg"
 width="500.000000pt" height="500.000000pt" viewBox="0 0 500.000000 500.000000"
 preserveAspectRatio="xMidYMid meet">

<g transform="translate(0.000000,500.000000) scale(0.100000,-0.100000)"
fill="#000000" stroke="none">
<path d="M1165 2885 c-175 -38 -312 -134 -382 -267 -24 -47 -28 -64 -28 -143
0 -70 5 -100 21 -136 19 -41 83 -124 89 -117 2 2 13 116 25 253 12 138 24 260
26 273 4 22 9 23 71 20 l67 -3 18 -45 c9 -25 37 -96 61 -159 l44 -114 42 107
c23 59 51 132 62 162 l20 54 68 0 68 0 6 -67 c4 -38 13 -149 22 -248 8 -99 17
-195 20 -212 l6 -33 -64 0 -64 0 -7 73 c-3 39 -9 116 -12 170 -4 54 -10 94
-14 90 -4 -4 -31 -79 -61 -166 l-54 -158 -39 3 -39 3 -56 162 c-30 89 -56 161
-58 160 -1 -2 -7 -54 -13 -117 -5 -63 -13 -138 -16 -167 l-5 -52 -57 -3 -57
-3 48 -35 c193 -140 528 -145 733 -12 238 155 277 402 92 584 -131 130 -374
189 -583 143z"/>
<path d="M430 2490 l0 -280 160 0 160 0 0 60 0 60 -95 0 -95 0 0 55 0 55 90 0
90 0 0 55 0 55 -90 0 -90 0 0 55 0 55 95 0 95 0 0 55 0 55 -160 0 -160 0 0
-280z"/>
<path d="M2050 2560 l0 -170 96 0 95 0 -3 33 c-3 32 -4 32 -60 35 l-58 3 0 34
0 35 55 0 55 0 0 35 0 35 -55 0 c-54 0 -55 0 -55 30 l0 30 60 0 60 0 0 35 0
35 -95 0 -95 0 0 -170z"/>
<path d="M2810 2708 c-59 -41 -75 -72 -75 -148 0 -76 16 -107 75 -147 62 -43
177 -24 219 36 84 118 7 281 -134 281 -38 0 -61 -6 -85 -22z m145 -73 c20 -19
25 -34 25 -75 0 -41 -5 -56 -25 -75 -41 -42 -105 -31 -133 22 -51 95 60 201
133 128z"/>
<path d="M2241 2593 c0 -5 24 -51 52 -103 42 -77 57 -96 77 -98 22 -2 31 8 78
96 28 55 52 102 52 106 0 3 -17 6 -39 6 -37 0 -39 -2 -64 -57 l-25 -58 -27 58
c-26 55 -28 57 -66 57 -21 0 -39 -3 -38 -7z"/>
<path d="M2548 2584 c-36 -19 -48 -43 -48 -94 0 -59 44 -100 107 -100 49 0
103 23 103 45 0 20 -39 29 -66 14 -28 -15 -74 1 -74 26 0 12 15 15 75 15 74 0
75 0 75 26 0 15 -12 38 -29 55 -24 23 -38 29 -73 29 -24 -1 -55 -7 -70 -16z
m92 -39 c11 -13 7 -15 -30 -15 -37 0 -41 2 -30 15 7 8 20 15 30 15 10 0 23 -7
30 -15z"/>
<path d="M3090 2495 l0 -105 35 0 35 0 0 70 c0 65 2 71 25 82 41 18 55 -3 55
-83 l0 -69 35 0 35 0 0 84 c0 79 -2 86 -26 105 -29 23 -74 27 -105 11 -13 -7
-19 -7 -19 0 0 5 -16 10 -35 10 l-35 0 0 -105z"/>
<path d="M2762 2308 c-7 -7 -12 -20 -12 -30 0 -11 -7 -18 -20 -18 -17 0 -20
-7 -20 -45 0 -58 27 -64 33 -7 l4 37 1 -37 c1 -26 7 -38 16 -38 10 0 16 13 19
38 l4 37 1 -37 c1 -26 7 -38 17 -38 8 0 15 7 15 17 0 15 2 15 19 -1 21 -19 52
-18 59 2 2 7 -4 11 -19 10 -12 -2 -24 3 -26 10 -9 23 44 13 60 -12 12 -18 25
-24 52 -23 l35 1 0 68 c0 39 -4 68 -10 68 -5 0 -10 -14 -10 -31 0 -26 -3 -29
-20 -24 -12 4 -28 1 -36 -6 -11 -9 -18 -9 -26 -1 -17 17 -38 15 -60 -5 -17
-15 -18 -15 -18 0 0 10 -8 17 -20 17 -11 0 -20 6 -20 14 0 9 7 12 20 9 24 -6
28 22 4 31 -22 8 -28 8 -42 -6z m115 -74 c-3 -3 -12 -4 -19 -1 -8 3 -5 6 6 6
11 1 17 -2 13 -5z m92 -31 c-15 -18 -34 -1 -25 22 5 14 9 15 21 5 12 -10 13
-16 4 -27z"/>
<path d="M2000 2295 c0 -8 7 -15 15 -15 12 0 15 -13 15 -55 0 -42 3 -55 15
-55 12 0 15 13 15 55 0 42 3 55 15 55 12 0 15 -13 15 -55 0 -41 4 -55 14 -55
9 0 16 12 18 33 2 17 8 32 13 32 6 0 11 -15 13 -32 3 -33 32 -48 32 -17 0 14
1 14 16 0 17 -18 24 -19 48 -10 23 9 19 24 -5 21 -12 -1 -24 3 -26 10 -3 7 9
13 28 15 31 3 32 4 15 21 -21 21 -40 22 -59 2 -13 -13 -17 -13 -28 1 -7 8 -21
13 -31 11 -14 -4 -18 1 -18 24 0 29 0 29 -60 29 -47 0 -60 -3 -60 -15z m237
-61 c-3 -3 -12 -4 -19 -1 -8 3 -5 6 6 6 11 1 17 -2 13 -5z"/>
<path d="M2322 2298 c-19 -19 -14 -46 13 -64 33 -21 32 -36 -2 -32 -34 4 -42
-19 -9 -28 17 -4 35 0 51 10 22 14 25 15 25 1 0 -8 5 -15 10 -15 6 0 10 20 10
45 0 25 -4 45 -10 45 -5 0 -10 -9 -10 -20 0 -20 0 -20 -30 2 -35 25 -38 38
-11 38 26 0 35 16 15 24 -24 9 -39 7 -52 -6z"/>
<path d="M2400 2295 c0 -8 5 -15 10 -15 6 0 10 7 10 15 0 8 -4 15 -10 15 -5 0
-10 -7 -10 -15z"/>
<path d="M2680 2268 c0 -38 -1 -40 -17 -26 -10 8 -33 15 -50 15 l-33 0 0 -64
c0 -35 4 -63 10 -63 6 0 10 12 10 26 0 21 3 24 21 19 13 -4 27 0 40 11 17 16
19 16 19 1 0 -10 5 -17 10 -17 6 0 10 30 10 70 0 40 -4 70 -10 70 -5 0 -10
-19 -10 -42z m-41 -64 c-9 -11 -15 -12 -25 -3 -11 9 -12 15 -3 25 9 11 15 12
25 3 11 -9 12 -15 3 -25z"/>
<path d="M2716 2303 c-11 -11 -6 -23 9 -23 8 0 15 4 15 9 0 13 -16 22 -24 14z"/>
<path d="M3040 2240 l0 -70 40 0 c22 0 40 5 40 10 0 6 8 5 19 -2 15 -9 25 -9
46 0 18 8 31 9 39 3 6 -5 26 -9 44 -9 31 1 32 3 32 43 0 40 -2 43 -27 43 -16
0 -36 -4 -45 -9 -12 -6 -26 -6 -39 2 -29 15 -69 -3 -69 -31 0 -15 -7 -20 -25
-20 -24 0 -25 3 -25 55 0 42 -3 55 -15 55 -12 0 -15 -14 -15 -70z m136 -35
c-5 -14 -9 -15 -21 -5 -12 10 -13 16 -4 27 15 18 34 1 25 -22z m104 10 c0 -19
-20 -29 -32 -17 -15 15 -2 43 17 36 8 -3 15 -12 15 -19z"/>
<path d="M3440 2240 l0 -70 50 0 50 0 0 45 c0 25 -4 45 -10 45 -5 0 -10 -15
-10 -34 0 -30 -2 -33 -25 -28 -23 4 -25 9 -25 58 0 41 -4 54 -15 54 -12 0 -15
-14 -15 -70z"/>
<path d="M3520 2295 c0 -8 5 -15 10 -15 6 0 10 7 10 15 0 8 -4 15 -10 15 -5 0
-10 -7 -10 -15z"/>
<path d="M3650 2240 c0 -40 4 -70 10 -70 6 0 10 7 10 15 0 8 5 15 10 15 6 0
13 -7 16 -15 4 -8 16 -15 27 -15 l21 0 -21 21 c-20 20 -20 24 -6 45 19 29 0
34 -29 7 -17 -15 -18 -14 -18 25 0 23 -4 42 -10 42 -6 0 -10 -30 -10 -70z"/>
<path d="M2430 2214 c0 -32 4 -44 15 -44 11 0 15 11 15 36 0 45 24 42 28 -4 4
-40 22 -42 22 -3 0 17 5 33 11 37 14 8 29 -14 29 -43 0 -13 5 -23 10 -23 11 0
14 79 3 81 -5 1 -36 2 -70 4 l-63 3 0 -44z"/>
<path d="M3310 2215 c0 -33 4 -45 15 -45 10 0 15 10 15 29 0 17 5 33 11 37 14
8 29 -14 29 -43 0 -13 5 -23 10 -23 6 0 10 18 10 39 0 42 -7 47 -62 50 -27 1
-28 -2 -28 -44z"/>
<path d="M3550 2214 c0 -54 27 -64 32 -11 2 17 8 32 13 32 6 0 11 -15 13 -32
4 -46 32 -45 32 1 0 40 -14 53 -57 54 -32 1 -33 0 -33 -44z"/>
</g>
</svg>
