<svg width="89" height="27" viewBox="0 0 89 27" fill="none" xmlns="http://www.w3.org/2000/svg">
<path d="M8 5.5L10.5863 9.94033L15.6085 11.0279L12.1846 14.8597L12.7023 19.9721L8 17.9L3.29772 19.9721L3.81535 14.8597L0.391548 11.0279L5.41374 9.94033L8 5.5Z" fill="#49D49D"/>
<path d="M44.5 0L48.8643 7.49305L57.3393 9.32827L51.5616 15.7945L52.4351 24.4217L44.5 20.925L36.5649 24.4217L37.4384 15.7945L31.6607 9.32827L40.1357 7.49305L44.5 0Z" fill="#49D49D"/>
<path d="M81 5.5L83.5863 9.94033L88.6085 11.0279L85.1846 14.8597L85.7023 19.9721L81 17.9L76.2977 19.9721L76.8154 14.8597L73.3915 11.0279L78.4137 9.94033L81 5.5Z" fill="#49D49D"/>
</svg>
